<svg
   width="24"
   height="24"
   viewBox="0 0 24 24"
   fill="none"
   stroke="currentColor"
   stroke-width="2"
   stroke-linecap="round"
   stroke-linejoin="round"
   class="icon icon-tabler icons-tabler-outline icon-tabler-brand-vk"
   version="1.1"
   id="svg2"
   sodipodi:docname="website.svg"
   xml:space="preserve"
   inkscape:version="1.4 (e7c3feb100, 2024-10-09)"
   xmlns:inkscape="http://www.inkscape.org/namespaces/inkscape"
   xmlns:sodipodi="http://sodipodi.sourceforge.net/DTD/sodipodi-0.dtd"
   xmlns="http://www.w3.org/2000/svg"
   xmlns:svg="http://www.w3.org/2000/svg"><defs
     id="defs2" /><sodipodi:namedview
     id="namedview2"
     pagecolor="#505050"
     bordercolor="#eeeeee"
     borderopacity="1"
     inkscape:showpageshadow="0"
     inkscape:pageopacity="0"
     inkscape:pagecheckerboard="0"
     inkscape:deskcolor="#505050"
     inkscape:zoom="12.344906"
     inkscape:cx="13.851867"
     inkscape:cy="29.161826"
     inkscape:window-width="1282"
     inkscape:window-height="1044"
     inkscape:window-x="0"
     inkscape:window-y="0"
     inkscape:window-maximized="1"
     inkscape:current-layer="g2" /><path
     stroke="none"
     d="M 0,0 H 24 V 24 H 0 Z"
     fill="none"
     id="path1"
     style="display:inline" /><g
     id="g2"
     transform="matrix(0.04669261,0,0,0.04669261,0.06319918,0.03018604)"
     style="display:inline"><path
       id="rect12"
       style="display:inline;fill:#dadadb;fill-opacity:1;stroke-width:2;stroke-linecap:round;stroke-linejoin:round;stroke:none"
       inkscape:label="background"
       d="m 255.64648,0.35351562 c -141.824,0 -255.99999562,114.17600438 -255.99999562,256.00000438 0,141.824 114.17599562,256 255.99999562,256 141.824,0 256,-114.176 256,-256 0,-141.824 -114.176,-256.00000438 -256,-256.00000438 z M 170.31836,40.560547 c 25.07013,0 54.75391,10.085937 54.75391,10.085937 l 0.28711,30.544922 C 219.70911,60.104587 195.10165,47.763672 172.625,47.763672 c -22.47665,0 -48.41016,16.713437 -48.41016,70.023438 0,53.31002 32.41742,67.57617 53.45313,67.57617 21.03588,0 26.08008,-3.16992 26.08008,-3.16992 v -56.64258 h -19.4375 l -4.48243,-7.76367 h 56.76954 v 60.56641 h 100.21289 c 0,0 12.64046,4.45119 5.47656,16.85937 -7.16389,12.4082 -87.60352,123.04492 -87.60352,123.04492 h 62.67579 c 0,0 20.91792,-1.4767 29.82617,-34.72265 v 39.39062 c 9.42837,-2.77074 19.16574,-3.83203 25.72851,-3.83203 16.95795,0 43.30469,8.74609 43.30469,8.74609 v 33.07618 c 0,0 3.6375,25.94824 -4.33594,-3.8086 -7.97326,-29.75681 -33.63476,-30.01367 -33.63476,-30.01367 h -17.64453 c 0,0 -13.42579,2.86351 -13.42579,17.49414 0,14.63063 12.66797,22.625 12.66797,22.625 0,0 41.47747,27.60251 44.49414,30.61914 3.0167,3.01661 27.71962,28.67622 15.53907,49.77344 -12.18055,21.09723 -28.96167,23.83398 -48.11719,23.83398 -19.15554,0 -47.51172,-8.74804 -47.51172,-8.74804 L 322.14062,423.625 c 2.20475,8.22878 11.63157,39.55859 50.24024,39.55859 38.60866,0 10.02539,-38.18164 10.02539,-38.18164 L 332.91992,388.3125 c 0,0 -13.43974,-10.8777 -14.29297,-36.47461 -0.45158,-13.54708 9.88751,-21.86044 22.24414,-26.73437 H 229.83008 c 0,0 -10.28889,-4.3135 -7.81641,-13.54102 2.47249,-9.2275 86.16602,-126.19531 86.16602,-126.19531 h -54.60938 c 0,0 -21.30515,1.85198 -21.15429,25.97265 -3.35003,2.05719 -3.37891,2.06446 -3.37891,2.06446 v -27.35547 c -15.71442,4.29861 -51.50509,6.94922 -55.54883,6.94922 -5.18696,0 -84.718749,5.18931 -84.718749,-71.75 -3.4e-5,-76.939317 56.478699,-80.687503 81.548829,-80.687503 z" /></g></svg>
