<?xml version="1.0" encoding="UTF-8" standalone="no"?>
<!-- Created with Inkscape (http://www.inkscape.org/) -->

<svg
   width="512"
   height="512"
   viewBox="0 0 512 512"
   version="1.1"
   id="svg1"
   xml:space="preserve"
   sodipodi:docname="GZS-LIGHT-NOBACKGROUND.svg"
   inkscape:version="1.4 (e7c3feb100, 2024-10-09)"
   xmlns:inkscape="http://www.inkscape.org/namespaces/inkscape"
   xmlns:sodipodi="http://sodipodi.sourceforge.net/DTD/sodipodi-0.dtd"
   xmlns="http://www.w3.org/2000/svg"
   xmlns:svg="http://www.w3.org/2000/svg"><sodipodi:namedview
     id="namedview1"
     pagecolor="#505050"
     bordercolor="#eeeeee"
     borderopacity="1"
     inkscape:showpageshadow="0"
     inkscape:pageopacity="0"
     inkscape:pagecheckerboard="0"
     inkscape:deskcolor="#505050"
     inkscape:document-units="px"
     inkscape:zoom="0.70710678"
     inkscape:cx="56.568543"
     inkscape:cy="291.32799"
     inkscape:window-width="1920"
     inkscape:window-height="1080"
     inkscape:window-x="0"
     inkscape:window-y="0"
     inkscape:window-maximized="0"
     inkscape:current-layer="layer3" /><defs
     id="defs1" /><g
     inkscape:groupmode="layer"
     id="layer1"
     inkscape:label="BACKGROUND"
     style="display:none"><rect
       style="display:inline;fill:#dfdfdf;fill-opacity:1;stroke-width:2;stroke-linecap:round;stroke-linejoin:round"
       id="rect12"
       width="512"
       height="512"
       x="-0.35355338"
       y="0.35355338"
       ry="110.82843"
       inkscape:label="background" /></g><g
     inkscape:groupmode="layer"
     id="layer3"
     inkscape:label="GZS 2"
     style="display:inline"><g
       id="g12"
       style="fill:#000000;fill-opacity:1"
       inkscape:label="letters"
       transform="translate(57.276695,-0.00985)"><path
         id="path2"
         style="fill:#000000;fill-opacity:1;stroke-width:4.05561;stroke-linecap:round;stroke-linejoin:round"
         inkscape:label="g"
         d="M 96.907082,0 C 67.115906,0 -4.0556184e-5,4.4533356 0,95.881374 c 0,91.428046 94.510008,85.263116 100.67374,85.263116 6.16373,0 74.9933,-5.13863 74.9933,-13.01444 V 91.770312 h -67.4604 l 5.32707,9.224168 h 23.09797 v 67.30984 c 0,0 -5.9942,3.7665 -30.99143,3.7665 -24.997021,0 -63.519623,-16.95148 -63.519623,-80.300508 0,-63.349006 30.817935,-83.2115319 57.527244,-83.2115319 26.709309,0 55.949729,14.6667479 62.664019,39.7245059 L 161.97141,11.984685 C 161.97141,11.984685 126.69826,0 96.907082,0 Z M 59.634299,14.753113 C 34.140564,40.246768 11.834911,116.42949 63.939341,168.53404 65.47703,170.07177 9.156822,157.31852 9.156822,86.791875 c 0,-44.358357 28.208811,-72.038762 50.477477,-72.038762 z m 85.385831,86.233437 h 21.67223 v 62.73539 l -21.76327,5.82995 z" /><path
         id="path6"
         style="fill:#000000;fill-opacity:1;stroke-width:4.05561;stroke-linecap:round;stroke-linejoin:round"
         inkscape:label="z"
         d="m 166.68257,163.74251 v 41.64933 c 0,0 0.0352,-0.007 4.01608,-2.45158 -0.17926,-28.66293 25.13775,-30.86473 25.13775,-30.86473 h 64.89379 c 0,0 -99.45438,138.99383 -102.39247,149.95899 -2.93809,10.96519 9.28758,16.09177 9.28758,16.09177 h 139.45558 v -49.39618 c -10.58579,39.50663 -35.44329,41.26117 -35.44329,41.26117 h -74.47845 c 0,0 95.58673,-131.47138 104.09968,-146.21621 8.51296,-14.74481 -6.50724,-20.03256 -6.50724,-20.03256 z m 123.84306,7.01416 c 6.85481,0 2.82392,10.53908 2.82392,10.53908 L 186.34686,330.60124 H 170.5719 c -5.73545,0 -5.19625,-9.32319 -5.19625,-9.32319 l 106.9076,-150.45009 c 0,0 11.38757,-0.0713 18.24238,-0.0713 z" /><path
         id="path10"
         style="fill:#000000;fill-opacity:1;stroke-width:4.05561;stroke-linecap:round;stroke-linejoin:round"
         inkscape:label="s"
         d="m 337.65436,330.98612 c -20.15137,0 -65.53154,8.25502 -64.50973,38.90862 1.0139,30.41716 16.98292,43.34446 16.98292,43.34446 l 58.80651,43.59792 c 0,0 33.96582,45.37226 -11.91339,45.37226 -45.87922,0 -57.08166,-37.2296 -59.70158,-47.00797 l 2.50698,46.42181 c 0,0 33.69511,10.39648 56.4579,10.39648 22.76277,0 42.70447,-3.25189 57.17878,-28.32202 14.47432,-25.07012 -14.87946,-55.56244 -18.46424,-59.14712 -3.58475,-3.5847 -52.87353,-36.38571 -52.87353,-36.38571 0,0 -15.05405,-9.49857 -15.05405,-26.88435 0,-17.38578 15.95318,-20.78901 15.95318,-20.78901 h 20.96716 c 0,0 30.49523,0.30447 39.96997,35.6649 9.47495,35.36046 5.15287,4.52693 5.15287,4.52693 v -39.30467 c 0,0 -31.30839,-10.39253 -51.45975,-10.39253 z m -30.94398,7.533 c -3.6454,3.50578 -4.38818,5.06162 -4.38818,5.06162 0,0 -16.68361,33.72297 12.99462,50.85765 29.678,17.13467 58.24804,40.86907 58.24804,40.86907 0,0 35.4668,37.29605 -7.34697,62.01457 0.53758,-0.71696 8.06339,-28.32235 -7.35081,-43.73654 -15.41419,-15.4142 -64.70378,-47.13867 -64.70378,-47.13867 0,0 -33.10848,-41.56848 12.54708,-67.9277 z" /></g></g></svg>
