<?xml version="1.0" encoding="UTF-8" standalone="no"?>
<!-- Created with Inkscape (http://www.inkscape.org/) -->

<svg
   width="512"
   height="512"
   viewBox="0 0 512 512"
   version="1.1"
   id="svg1"
   xml:space="preserve"
   sodipodi:docname="GZS-LIGHT-NOBACKGROUND.svg"
   inkscape:version="1.4 (e7c3feb100, 2024-10-09)"
   xmlns:inkscape="http://www.inkscape.org/namespaces/inkscape"
   xmlns:sodipodi="http://sodipodi.sourceforge.net/DTD/sodipodi-0.dtd"
   xmlns="http://www.w3.org/2000/svg"
   xmlns:svg="http://www.w3.org/2000/svg"><sodipodi:namedview
     id="namedview1"
     pagecolor="#505050"
     bordercolor="#eeeeee"
     borderopacity="1"
     inkscape:showpageshadow="0"
     inkscape:pageopacity="0"
     inkscape:pagecheckerboard="0"
     inkscape:deskcolor="#505050"
     inkscape:document-units="px"
     inkscape:zoom="1"
     inkscape:cx="105"
     inkscape:cy="293.5"
     inkscape:window-width="1920"
     inkscape:window-height="1080"
     inkscape:window-x="0"
     inkscape:window-y="0"
     inkscape:window-maximized="0"
     inkscape:current-layer="layer3" /><defs
     id="defs1" /><g
     inkscape:groupmode="layer"
     id="layer1"
     inkscape:label="BACKGROUND"
     style="display:inline" /><g
     inkscape:groupmode="layer"
     id="layer3"
     inkscape:label="GZS 2"
     style="display:inline"><path
       id="rect12"
       style="display:inline;fill:#000000;fill-opacity:1;stroke-width:2;stroke-linecap:round;stroke-linejoin:round"
       inkscape:label="background"
       d="M 255.64648 0.35351562 C 113.82248 0.35351562 -0.35351562 114.52952 -0.35351562 256.35352 C -0.35351562 398.17752 113.82248 512.35352 255.64648 512.35352 C 397.47048 512.35352 511.64648 398.17752 511.64648 256.35352 C 511.64648 114.52952 397.47048 0.35351562 255.64648 0.35351562 z M 170.31836 40.560547 C 195.38849 40.560547 225.07227 50.646484 225.07227 50.646484 L 225.35938 81.191406 C 219.70911 60.104587 195.10165 47.763672 172.625 47.763672 C 150.14835 47.763672 124.21484 64.477109 124.21484 117.78711 C 124.21484 171.09713 156.63226 185.36328 177.66797 185.36328 C 198.70385 185.36328 203.74805 182.19336 203.74805 182.19336 L 203.74805 125.55078 L 184.31055 125.55078 L 179.82812 117.78711 L 236.59766 117.78711 L 236.59766 178.35352 L 336.81055 178.35352 C 336.81055 178.35352 349.45101 182.80471 342.28711 195.21289 C 335.12322 207.62109 254.68359 318.25781 254.68359 318.25781 L 317.35938 318.25781 C 317.35938 318.25781 338.2773 316.78111 347.18555 283.53516 L 347.18555 322.92578 C 356.61392 320.15504 366.35129 319.09375 372.91406 319.09375 C 389.87201 319.09375 416.21875 327.83984 416.21875 327.83984 L 416.21875 360.91602 C 416.21875 360.91602 419.85625 386.86426 411.88281 357.10742 C 403.90955 327.35061 378.24805 327.09375 378.24805 327.09375 L 360.60352 327.09375 C 360.60352 327.09375 347.17773 329.95726 347.17773 344.58789 C 347.17773 359.21852 359.8457 367.21289 359.8457 367.21289 C 359.8457 367.21289 401.32317 394.8154 404.33984 397.83203 C 407.35654 400.84864 432.05946 426.50825 419.87891 447.60547 C 407.69836 468.7027 390.91724 471.43945 371.76172 471.43945 C 352.60618 471.43945 324.25 462.69141 324.25 462.69141 L 322.14062 423.625 C 324.34537 431.85378 333.77219 463.18359 372.38086 463.18359 C 410.98952 463.18359 382.40625 425.00195 382.40625 425.00195 L 332.91992 388.3125 C 332.91992 388.3125 319.48018 377.4348 318.62695 351.83789 C 318.17537 338.29081 328.51446 329.97745 340.87109 325.10352 L 229.83008 325.10352 C 229.83008 325.10352 219.54119 320.79002 222.01367 311.5625 C 224.48616 302.335 308.17969 185.36719 308.17969 185.36719 L 253.57031 185.36719 C 253.57031 185.36719 232.26516 187.21917 232.41602 211.33984 C 229.06599 213.39703 229.03711 213.4043 229.03711 213.4043 L 229.03711 186.04883 C 213.32269 190.34744 177.53202 192.99805 173.48828 192.99805 C 168.30132 192.99805 88.769531 198.18736 88.769531 121.24805 C 88.769497 44.308733 145.24823 40.560547 170.31836 40.560547 z " /></g></svg>
