<?xml version="1.0" encoding="UTF-8" standalone="no"?>
<!-- Created with Inkscape (http://www.inkscape.org/) -->

<svg
   width="512"
   height="512"
   viewBox="0 0 512 512"
   version="1.1"
   id="svg1"
   xml:space="preserve"
   sodipodi:docname="GZS-LIGHT-NOBACKGROUND.svg"
   inkscape:version="1.4 (e7c3feb100, 2024-10-09)"
   xmlns:inkscape="http://www.inkscape.org/namespaces/inkscape"
   xmlns:sodipodi="http://sodipodi.sourceforge.net/DTD/sodipodi-0.dtd"
   xmlns="http://www.w3.org/2000/svg"
   xmlns:svg="http://www.w3.org/2000/svg"><sodipodi:namedview
     id="namedview1"
     pagecolor="#505050"
     bordercolor="#eeeeee"
     borderopacity="1"
     inkscape:showpageshadow="0"
     inkscape:pageopacity="0"
     inkscape:pagecheckerboard="0"
     inkscape:deskcolor="#505050"
     inkscape:document-units="px"
     inkscape:zoom="0.74023438"
     inkscape:cx="-41.878628"
     inkscape:cy="371.50396"
     inkscape:window-width="1920"
     inkscape:window-height="1080"
     inkscape:window-x="0"
     inkscape:window-y="0"
     inkscape:window-maximized="0"
     inkscape:current-layer="layer2" /><defs
     id="defs1" /><g
     inkscape:groupmode="layer"
     id="layer1"
     inkscape:label="BACKGROUND"
     style="display:none"><rect
       style="fill:#202020;fill-opacity:1;stroke:none"
       id="rect2"
       width="512"
       height="512"
       x="0"
       y="0" /></g><g
     inkscape:groupmode="layer"
     id="layer2"
     inkscape:label="GZS"
     transform="matrix(1.8809745,0,0,1.8809745,-224.61149,-148.231)"><path
       id="path1"
       style="fill:#dfdfdf;fill-opacity:1;stroke:none;stroke-width:1.06328;stroke-linecap:round;stroke-linejoin:round"
       inkscape:label="g"
       d="m 169.74222,163.11578 c -30.97866,0 -40.17486,29.42009 -41.00891,32.12161 -4.38018,1.71399 -4.06309,4.44313 -4.06309,4.44313 h 14.82256 v 25.26533 c 0,0 -13.96521,-0.82491 -14.28262,0.31774 -0.3174,1.14266 0.63444,4.41198 0.63444,4.41198 0,0 2.77174,-0.0527 2.94063,0.41534 8.89132,24.64176 27.29137,30.34394 43.09186,30.34394 15.80048,0 26.57366,-9.15728 26.57366,-9.15728 0,0 0.53866,7.90007 0,10.59333 -0.53865,2.69327 -8.4385,19.39212 -25.49585,18.85347 -17.05734,-0.53865 -21.36629,-14.36465 -21.36629,-14.36465 0.34982,-1.39926 -19.12446,-2.28015 -19.75061,0 -1.14309,4.1626 8.61805,37.52673 45.24645,34.11526 36.62841,-3.41147 41.29654,-39.32158 41.29654,-39.32158 v -95.88095 c -6.73334,-0.72577 -13.46688,-0.44692 -20.20022,0.0104 v 6.97361 c 0,0 -7.60451,-9.14067 -28.43855,-9.14067 z m -2.22416,20.70279 h 7.00269 c 10.14463,0 28.31387,14.15132 24.32873,34.65416 -3.99673,20.56243 -23.78983,22.71304 -23.78983,22.71304 h -8.97764 c -12.4788,0 -19.39134,-15.53176 -19.39134,-15.53176 v -24.41803 c 4.69658,-16.55556 20.82739,-17.41741 20.82739,-17.41741 z" /><path
       style="fill:#dfdfdf;fill-opacity:1;stroke:none;stroke-width:1.06328;stroke-linecap:round;stroke-linejoin:round"
       d="m 133.94738,211.82127 c 0,0 1.52618,-0.89775 1.57106,-2.51371 0.0449,-1.61596 -1.4364,-2.82793 -2.9177,-2.73816 -1.48129,0.0898 -3.09725,0.98753 -3.09725,2.73816 0,1.75062 1.88528,2.5586 1.88528,2.5586 v 2.82792 h -1.7955 v 2.69327 h 5.97007 v -2.73815 h -1.70574 z"
       id="path3"
       inkscape:label="lock" /><g
       id="g10"
       inkscape:label="circuit"
       transform="translate(193.54234,-115.65456)"
       style="fill:#dfdfdf;fill-opacity:1"><path
         style="fill:#dfdfdf;fill-opacity:1;stroke:none;stroke-width:1.06328;stroke-linecap:round;stroke-linejoin:round"
         d="m -31.186111,343.93494 c 0.89737,-0.14643 2.033839,0.30519 2.558604,1.05486 0.478811,0.68402 0.596787,2.30902 0.08977,2.98504 -0.638408,0.85121 -2.147738,1.37251 -3.142143,0.87531 -0.373891,-0.18695 -0.773545,-0.43351 -0.98753,-0.80798 -0.713965,-1.24944 -0.160624,-3.90199 1.481296,-4.10723 z"
         id="path7" /><path
         style="fill:#dfdfdf;fill-opacity:1;stroke:none;stroke-width:1.06328;stroke-linecap:round;stroke-linejoin:round"
         d="m -10.985223,308.14618 c 0.89737,-0.14643 2.0338391,0.30519 2.5586041,1.05486 0.478811,0.68402 0.596787,2.30902 0.08977,2.98504 -0.638408,0.85121 -2.1477381,1.37251 -3.1421431,0.87531 -0.373891,-0.18695 -0.773545,-0.43351 -0.98753,-0.80798 -0.713965,-1.24944 -0.160624,-3.90199 1.481296,-4.10723 z"
         id="path7-6" /><path
         style="fill:#dfdfdf;fill-opacity:1;stroke:none;stroke-width:1.06328;stroke-linecap:round;stroke-linejoin:round"
         d="m -47.121261,332.51101 19.122184,0.22443 2.783041,3.07481 6.867824,-5.90274 13.1969993,-0.0898 v 4.7581 h 2.6483773 V 318.50603 H -14.712305 c 0,0 -3.411471,-1.43641 -3.411471,-3.18703 v -7.3616 H -32.93673 v 7.3616 h -3.501244 c 0,0 -0.583543,-1.39153 -2.019953,-1.39153 -1.436404,0 -2.356603,1.25686 -2.356603,2.35661 v 1.99751 h 10.840392 v -7.63092 h 8.88777 v 5.38653 c 0,0 3.276807,5.43142 5.431419,5.43142 h 10.5486226 v 5.74563 H -17.585119 l -6.957601,-6.9576 -2.985037,2.98503 h -19.593504 v 2.85038 h 19.773053 l 2.895261,-2.46883 4.735657,4.55611 -5.341643,4.62343 -2.872815,-2.89526 h -19.324177 z"
         id="path8"
         sodipodi:nodetypes="cccccccccsccccsscccccscccccccccccccc" /><path
         id="path9"
         style="fill:#dfdfdf;fill-opacity:1;stroke:none;stroke-width:1.06328;stroke-linecap:round;stroke-linejoin:round"
         d="m -16.642717,335.83227 v 10.19045 c 0,0 0.01255,-5.6e-4 -2.199242,0 -0.793511,-3.21691 -4.148001,-7.81053 -5.252015,-7.81053 h -12.164364 c 0,0 -0.404044,-1.82336 -2.181591,-1.82336 -1.777547,0 -2.092291,2.09333 -2.092291,2.09333 0,0 -0.529563,0.62729 -0.529563,1.97392 0,1.34663 0.80852,2.24493 2.24493,2.24493 1.43641,0 2.243892,-2.24493 2.243892,-2.24493 0,0 7.524317,0.16368 10.664976,0.12668 2.922638,-0.0344 3.789397,8.2932 6.437819,8.3567 5.879398,0.14093 13.3314793,0 13.3314793,0 v -13.10719 z m 2.850293,2.76099 h 4.6684579 v 7.51876 h -4.6009649 z" /></g><path
       style="fill:#dfdfdf;fill-opacity:1;stroke:none;stroke-width:1.06328;stroke-linecap:round;stroke-linejoin:round"
       d="m 232.19577,164.73402 h 68.41983 c 1.64929,8.07549 0.31514,11.17858 0,15.98004 l -42.73314,59.07228 h 44.16955 c 1.04214,6.34413 1.11201,12.68827 0,19.0324 h -70.56355 c -0.49528,-4.81973 -1.54078,-8.4779 0,-17.59599 l 41.83539,-57.99498 -41.07549,-0.0317 c -0.60543,-6.238 -1.09345,-12.45923 -0.0526,-18.46205 z"
       id="path4"
       sodipodi:nodetypes="ccccccccccc"
       inkscape:label="z" /><path
       style="fill:#dfdfdf;fill-opacity:1;stroke:none;stroke-width:1.06328;stroke-linecap:round;stroke-linejoin:round"
       d="m 383.56817,195.79634 v -12.92767 c 0,0 -3.95013,-18.67331 -21.36657,-18.67331 h -28.36906 c 0,0 -16.48733,-0.28969 -21.90523,19.93017 -5.41789,20.21985 10.05551,35.61661 20.10972,35.73065 l 23.74562,0.26933 c 0,0 8.15624,0.53917 8.07979,6.10473 l -0.11222,8.16957 c 0,0 -0.83042,5.38653 -4.42144,5.38653 h -22.62343 c 0,0 -4.84787,-0.53865 -4.84787,-5.38653 v -7.18204 c -6.28125,-0.63907 -12.63684,-1.01792 -19.39151,0 v 12.02992 c 0,0 2.69326,19.0324 19.21196,19.0324 h 31.60097 c 0,0 16.77749,-1.02085 22.08478,-20.82792 5.30728,-19.80706 -11.85037,-34.65334 -22.26433,-34.65334 h -23.52118 c 0,0 -7.00249,-1.61596 -7.00249,-7.36159 v -7.54114 c 0,0 0.71821,-4.48878 5.02743,-4.48878 h 20.28927 c 0,0 4.48877,1.43641 4.48877,5.02743 v 7.36755 c 7.06234,1.19499 14.12468,1.19306 21.18702,-0.006 z"
       id="path5"
       sodipodi:nodetypes="ccscsscscscscccscsscscscsccc"
       inkscape:label="s" /></g></svg>
