<?xml version="1.0" encoding="UTF-8" standalone="no"?>
<!-- Created with Inkscape (http://www.inkscape.org/) -->

<svg
   width="512"
   height="512"
   viewBox="0 0 512 512"
   version="1.1"
   id="svg1"
   xml:space="preserve"
   sodipodi:docname="logo.svg"
   inkscape:version="1.4.2 (ebf0e940d0, 2025-05-08)"
   xmlns:inkscape="http://www.inkscape.org/namespaces/inkscape"
   xmlns:sodipodi="http://sodipodi.sourceforge.net/DTD/sodipodi-0.dtd"
   xmlns="http://www.w3.org/2000/svg"
   xmlns:svg="http://www.w3.org/2000/svg"><sodipodi:namedview
     id="namedview1"
     pagecolor="#505050"
     bordercolor="#eeeeee"
     borderopacity="1"
     inkscape:showpageshadow="0"
     inkscape:pageopacity="0"
     inkscape:pagecheckerboard="0"
     inkscape:deskcolor="#505050"
     inkscape:document-units="px"
     inkscape:zoom="1.4142136"
     inkscape:cx="226.27416"
     inkscape:cy="208.59649"
     inkscape:window-width="1920"
     inkscape:window-height="1080"
     inkscape:window-x="0"
     inkscape:window-y="0"
     inkscape:window-maximized="0"
     inkscape:current-layer="layer1" /><defs
     id="defs1" /><g
     inkscape:groupmode="layer"
     id="layer1"
     inkscape:label="BACKGROUND"
     style="display:inline"><rect
       style="display:inline;fill:#26718e;fill-opacity:1;stroke-width:2;stroke-linecap:round;stroke-linejoin:round"
       id="rect6"
       height="512"
       x="0"
       y="0"
       width="512"
       inkscape:label="back" /></g><g
     inkscape:groupmode="layer"
     id="layer3"
     inkscape:label="GZS"
     style="display:inline"><path
       id="path2"
       style="display:inline;fill:#ffffff;fill-opacity:1;stroke-width:2.37654;stroke-linecap:round;stroke-linejoin:round"
       inkscape:label="gzs"
       d="M 154.18654,0 C 124.39645,0 57.284459,4.4538433 57.2845,95.878551 c 0,91.424689 94.50525,85.258379 100.66877,85.258379 4.80505,0 47.33403,-3.14964 66.007,-8.25755 v 32.50568 c 0,0 0.0343,-0.008 4.01507,-2.45313 -0.17926,-28.66187 25.137,-30.86252 25.137,-30.86252 h 64.8907 c 0,0 -99.45052,138.98936 -102.3885,149.95412 -2.93798,10.96479 9.28801,16.09038 9.28801,16.09038 h 131.94671 c -14.68301,5.79155 -26.96864,15.67007 -26.43204,31.76766 1.01386,30.41605 16.9839,43.34169 16.9839,43.34169 l 58.80313,43.59698 c 0,0 33.96465,45.37011 -11.91287,45.37011 -45.87754,0 -57.07914,-37.22828 -59.69898,-47.00629 l 2.50651,46.42145 c 0,0 33.69481,10.39503 56.45676,10.39503 22.76194,0 42.70244,-3.252 57.17622,-28.32121 14.47379,-25.0692 -14.87995,-55.55974 -18.46461,-59.1443 -3.58462,-3.58457 -52.87106,-36.3838 -52.87106,-36.3838 0,0 -15.05297,-9.49947 -15.05297,-26.88461 0,-17.38515 15.95347,-20.78777 15.95347,-20.78777 0,0 13.99972,-0.55514 20.96646,0 8.06872,0.64295 30.4928,0.30522 39.96718,35.66434 9.47461,35.35917 5.15228,4.52565 5.15228,4.52565 v -39.30343 c 0,0 -31.30705,-10.39272 -51.45768,-10.39272 -7.79834,0 -19.36897,1.2611 -30.57242,4.55348 v -46.8067 c -10.5854,39.50517 -35.44155,41.2599 -35.44155,41.2599 h -74.47576 c 0,0 95.58401,-131.46631 104.09665,-146.21061 8.51264,-14.74427 -6.50764,-20.03349 -6.50764,-20.03349 H 232.94425 V 91.76602 H 165.4867 l 5.32634,9.22534 h 23.097 v 67.30668 c 0,0 -5.99387,3.76672 -30.99018,3.76672 -24.99611,0 -63.516757,-16.95204 -63.516757,-80.29874 0,-63.346688 30.816017,-83.2067615 57.524347,-83.2067615 26.70833,0 55.94863,14.6643405 62.66269,39.7211785 L 219.24898,11.984818 C 219.24898,11.984818 183.97663,0 154.18654,0 Z m -34.88919,16.647385 c 0,0 -61.448361,48.187301 0,154.619015 C 64.265864,144.0309 68.046236,88.224416 68.046236,88.224416 c 0,0 3.649045,-71.577031 51.251114,-71.577031 z m 85.63668,87.110425 h 19.04249 v 59.45759 l -19.01929,5.09657 z m 125.00278,68.78969 c 0,0 9.18211,0.22976 17.04424,0.22976 7.86215,0 4.17751,9.33674 4.17751,9.33674 l -107.4897,148.39916 h -15.48001 c -4.42247,0 -3.87813,-8.55925 -3.87813,-8.55925 z m 43.70373,163.88612 c -38.1914,22.04982 -5.47021,56.4498 -5.47021,56.4498 0,0 7.88527,8.01838 28.25389,19.77819 20.36864,11.75981 49.01616,36.60928 49.01616,56.63315 0,20.02387 -10.67139,28.93857 -20.88293,31.44738 13.37486,-23.16594 -10.31845,-47.17107 -10.31845,-47.17107 0,0 -22.45582,-14.84995 -61.91537,-43.97992 -35.89703,-62.1755 21.31691,-73.15753 21.31691,-73.15753 z" /></g></svg>
