<?xml version="1.0" encoding="UTF-8" standalone="no"?>
<svg
   version="1.1"
   width="28.097073"
   height="27.939913"
   id="svg5"
   sodipodi:docname="dagger.svg"
   xml:space="preserve"
   inkscape:version="1.4.4 (dcaf3e7d9e, 2026-05-05)"
   xmlns:inkscape="http://www.inkscape.org/namespaces/inkscape"
   xmlns:sodipodi="http://sodipodi.sourceforge.net/DTD/sodipodi-0.dtd"
   xmlns="http://www.w3.org/2000/svg"
   xmlns:svg="http://www.w3.org/2000/svg"><defs
     id="defs5" /><sodipodi:namedview
     id="namedview5"
     pagecolor="#ffffff"
     bordercolor="#000000"
     borderopacity="0.25"
     inkscape:showpageshadow="2"
     inkscape:pageopacity="0.0"
     inkscape:pagecheckerboard="0"
     inkscape:deskcolor="#d1d1d1"
     inkscape:zoom="10.556805"
     inkscape:cx="3.9784763"
     inkscape:cy="33.059243"
     inkscape:window-width="1144"
     inkscape:window-height="1391"
     inkscape:window-x="1431"
     inkscape:window-y="50"
     inkscape:window-maximized="0"
     inkscape:current-layer="svg5" /><path
     style="fill:#971429;fill-opacity:1;stroke:#971429;stroke-width:1;stroke-linecap:round;stroke-linejoin:round;stroke-dasharray:none;stroke-opacity:1"
     d="m 0.5,0.5 c 0.167453,0.100472 19.223585,16.477359 19.223585,16.477359 l -0.03349,0.837264 0.468868,0.60283 1.272642,-0.904245 0.837264,-2.545283 c 0,0 1.004717,2.009434 0.803773,2.511792 -0.200943,0.502358 -1.80849,2.34434 -1.80849,2.34434 l 4.320283,4.454245 c 0,0 3.148113,0.971226 1.574056,2.846698"
     id="path5" /><path
     style="fill:#971429;fill-opacity:1;stroke:#971429;stroke-width:1;stroke-linecap:round;stroke-linejoin:round;stroke-dasharray:none;stroke-opacity:1"
     d="m 0.648055,0.674379 c 0.100472,0.167453 16.51288,18.892045 16.51288,18.892045 l 0.837264,-0.03349 0.60283,0.468868 -0.904245,1.272642 -2.545283,0.837264 c 0,0 2.009434,1.004717 2.511792,0.803773 0.502358,-0.200943 2.34434,-1.80849 2.34434,-1.80849 l 4.454245,4.320283 c 0,0 0.971226,3.148113 2.846698,1.574056"
     id="path5-6"
     sodipodi:nodetypes="ccccccsccc" /></svg>
